<svg width="275" height="36" viewBox="0 0 275 36" fill="none" xmlns="http://www.w3.org/2000/svg">
<path d="M61.8003 13.2085C61.0923 13.087 60.5125 13.0263 60.0609 13.0263C58.2178 12.9777 56.7592 13.664 55.6851 15.085L53.3965 27.9838H48.2334L51.6755 8.27126L56.5273 8.25304L56.0513 10.6579C57.2963 8.79959 58.8342 7.87045 60.6651 7.87045C61.1778 7.87045 61.7759 7.95547 62.4594 8.12551L61.8003 13.2085Z" fill="black"/>
<path d="M67.1648 27.9838H61.965L65.4071 8.27126H70.6068L67.1648 27.9838ZM66.0113 3.26113C65.9869 2.44737 66.2554 1.77328 66.8169 1.23887C67.3784 0.704453 68.0558 0.437247 68.8492 0.437247C69.6304 0.412955 70.3078 0.649798 70.8815 1.14777C71.4551 1.64575 71.7542 2.28947 71.7786 3.07895C71.803 3.83198 71.5467 4.48785 71.0096 5.04656C70.4848 5.60526 69.7951 5.89676 68.9407 5.92105C68.1717 5.94534 67.4943 5.71457 66.9084 5.22874C66.3348 4.74292 66.0357 4.08704 66.0113 3.26113Z" fill="black"/>
<path d="M79.7246 8.25304L79.2852 10.585C80.872 8.75101 82.7944 7.8583 85.0525 7.90688C86.92 7.94332 88.2993 8.62348 89.1903 9.94737C90.0813 11.2713 90.4048 13.1053 90.1607 15.4494L88.0735 27.9838H82.9104L85.0342 15.3947C85.0952 14.9211 85.1074 14.4899 85.0708 14.1012C84.9121 12.8623 84.131 12.2247 82.7273 12.1883C81.3724 12.1397 80.1579 12.7652 79.0838 14.0648L76.6121 27.9838H71.449L74.8911 8.27126L79.7246 8.25304Z" fill="black"/>
<path d="M103.599 27.9838C103.441 27.4858 103.374 26.8907 103.398 26.1984C101.909 27.6802 100.224 28.3968 98.3447 28.3482C96.6115 28.3239 95.1712 27.7652 94.0239 26.6721C92.8887 25.5668 92.3577 24.2065 92.431 22.5911C92.5164 20.4413 93.4197 18.7955 95.1407 17.6538C96.8739 16.5 99.1931 15.9231 102.098 15.9231L104.515 15.9595L104.771 14.7753C104.844 14.3745 104.863 13.9919 104.826 13.6275C104.765 13.0567 104.545 12.6134 104.167 12.2976C103.801 11.9696 103.313 11.7996 102.702 11.7874C101.897 11.7632 101.213 11.9636 100.652 12.3887C100.09 12.8016 99.7301 13.4028 99.5714 14.1923L94.39 14.2105C94.4755 12.3279 95.3421 10.8036 96.9899 9.63765C98.6499 8.45951 100.694 7.88259 103.123 7.90688C105.369 7.95547 107.127 8.62348 108.396 9.91093C109.666 11.1862 110.197 12.832 109.989 14.8482L108.47 24.2854L108.378 25.4514C108.354 26.3138 108.457 27.0425 108.689 27.6377L108.671 27.9838H103.599ZM99.6264 24.3583C101.115 24.4069 102.415 23.7632 103.526 22.4271L104.167 19.0202L102.373 19.002C100.469 19.0506 99.0954 19.6275 98.2532 20.7328C97.9481 21.1336 97.7589 21.6255 97.6856 22.2085C97.588 22.8644 97.7222 23.3866 98.0884 23.7753C98.4668 24.1518 98.9795 24.3462 99.6264 24.3583Z" fill="black"/>
<path d="M117.294 27.9838H112.095L116.983 0H122.165L117.294 27.9838Z" fill="black"/>
<path d="M131.52 7.88866C133.363 7.93725 134.853 8.67206 135.988 10.0931L137.928 0H143.11L138.24 27.9838H133.626L133.919 25.8704C132.442 27.583 130.721 28.415 128.756 28.3664C127.523 28.3543 126.443 28.0324 125.515 27.4008C124.587 26.7692 123.867 25.8644 123.355 24.6862C122.854 23.496 122.58 22.1721 122.531 20.7146C122.494 19.9494 122.512 19.2085 122.586 18.4919L122.696 17.6721C122.988 15.6559 123.55 13.8826 124.38 12.3522C125.222 10.8219 126.247 9.68623 127.456 8.94534C128.676 8.20445 130.031 7.85223 131.52 7.88866ZM127.767 18.4919C127.669 19.415 127.639 20.1923 127.676 20.8239C127.798 22.9615 128.664 24.0486 130.275 24.085C131.728 24.1457 132.991 23.4656 134.065 22.0445L135.475 14.2105C134.999 12.9109 134.047 12.2308 132.619 12.17C131.362 12.1336 130.312 12.6194 129.47 13.6275C128.64 14.6235 128.072 16.2449 127.767 18.4919Z" fill="black"/>
<path d="M150.781 20.4777L156.439 8.27126H162.188L150.598 30.9534C149.768 32.6903 148.792 33.9656 147.669 34.7794C146.558 35.5931 145.27 36 143.806 36C143.232 36 142.402 35.8725 141.316 35.6174L141.7 31.6093L142.414 31.6457C144.099 31.6943 145.331 31.081 146.113 29.8057L147.248 27.7105L144.007 8.27126H149.353L150.781 20.4777Z" fill="black"/>
<path d="M170.408 7.88866C172.251 7.93725 173.741 8.67206 174.876 10.0931L176.817 0H181.998L177.128 27.9838H172.514L172.807 25.8704C171.33 27.583 169.609 28.415 167.644 28.3664C166.411 28.3543 165.331 28.0324 164.403 27.4008C163.475 26.7692 162.755 25.8644 162.243 24.6862C161.742 23.496 161.468 22.1721 161.419 20.7146C161.382 19.9494 161.4 19.2085 161.474 18.4919L161.584 17.6721C161.876 15.6559 162.438 13.8826 163.268 12.3522C164.11 10.8219 165.135 9.68623 166.344 8.94534C167.564 8.20445 168.919 7.85223 170.408 7.88866ZM166.655 18.4919C166.557 19.415 166.527 20.1923 166.564 20.8239C166.686 22.9615 167.552 24.0486 169.163 24.085C170.616 24.1457 171.879 23.4656 172.953 22.0445L174.363 14.2105C173.887 12.9109 172.935 12.2308 171.507 12.17C170.25 12.1336 169.2 12.6194 168.358 13.6275C167.528 14.6235 166.96 16.2449 166.655 18.4919Z" fill="black"/>
<path d="M199.153 20.8057L203.859 8.27126H209.003L200.673 27.9838H196.352L194.887 15.6498L189.102 27.9838H184.781L183.316 8.27126H188.15L188.461 20.6781L194.118 8.27126H197.853L199.153 20.8057Z" fill="black"/>
<path d="M213.636 27.9838H208.436L211.878 8.27126H217.078L213.636 27.9838ZM212.482 3.26113C212.458 2.44737 212.726 1.77328 213.288 1.23887C213.849 0.704453 214.527 0.437247 215.32 0.437247C216.101 0.412955 216.779 0.649798 217.352 1.14777C217.926 1.64575 218.225 2.28947 218.249 3.07895C218.274 3.83198 218.018 4.48785 217.48 5.04656C216.956 5.60526 216.266 5.89676 215.412 5.92105C214.643 5.94534 213.965 5.71457 213.379 5.22874C212.806 4.74292 212.507 4.08704 212.482 3.26113Z" fill="black"/>
<path d="M223.486 27.9838H218.286L221.728 8.27126H226.928L223.486 27.9838ZM222.332 3.26113C222.308 2.44737 222.576 1.77328 223.138 1.23887C223.699 0.704453 224.377 0.437247 225.17 0.437247C225.951 0.412955 226.629 0.649798 227.202 1.14777C227.776 1.64575 228.075 2.28947 228.1 3.07895C228.124 3.83198 227.868 4.48785 227.331 5.04656C226.806 5.60526 226.116 5.89676 225.262 5.92105C224.493 5.94534 223.815 5.71457 223.229 5.22874C222.656 4.74292 222.357 4.08704 222.332 3.26113Z" fill="black"/>
<path d="M231.058 24.8808C231.525 24.8669 231.923 25.0127 232.25 25.318C232.585 25.6165 232.753 25.9947 232.753 26.4528C232.767 26.9109 232.613 27.303 232.292 27.6292C231.971 27.9485 231.577 28.1081 231.11 28.1081C230.643 28.122 230.249 27.9832 229.928 27.6917C229.607 27.4002 229.44 27.0219 229.426 26.5569C229.412 26.0919 229.562 25.6998 229.876 25.3805C230.189 25.0612 230.584 24.8947 231.058 24.8808Z" fill="black"/>
<path d="M240.108 25.7761C240.652 25.79 241.105 25.6442 241.468 25.3389C241.83 25.0265 242.068 24.6136 242.179 24.1L244.952 24.0896C244.903 24.8808 244.652 25.5922 244.198 26.2238C243.752 26.8553 243.152 27.3481 242.399 27.7021C241.653 28.056 240.864 28.2226 240.034 28.2018C238.66 28.181 237.572 27.709 236.77 26.7859C235.968 25.8629 235.581 24.6344 235.609 23.1006L235.64 22.528L235.651 22.4135C235.839 20.5812 236.46 19.1306 237.513 18.0618C238.566 16.986 239.867 16.469 241.415 16.5106C242.692 16.5384 243.703 16.9548 244.449 17.7599C245.203 18.5581 245.572 19.613 245.558 20.9247H242.807C242.807 20.3209 242.674 19.8455 242.409 19.4985C242.144 19.1515 241.747 18.9641 241.217 18.9363C239.808 18.8947 238.953 19.9184 238.653 22.0074C238.549 22.764 238.51 23.4025 238.538 23.923C238.608 25.1376 239.131 25.7553 240.108 25.7761Z" fill="black"/>
<path d="M252.568 16.5106C253.565 16.5245 254.423 16.7813 255.142 17.281C255.867 17.7738 256.397 18.4574 256.732 19.3319C257.074 20.1995 257.196 21.1642 257.098 22.2261C256.938 24.0167 256.31 25.4673 255.215 26.5777C254.127 27.6812 252.781 28.2191 251.177 28.1914C250.193 28.1775 249.342 27.9276 248.624 27.4418C247.905 26.949 247.375 26.2689 247.034 25.4013C246.692 24.5338 246.57 23.576 246.667 22.528C246.849 20.6679 247.483 19.1896 248.572 18.093C249.66 16.9965 250.992 16.469 252.568 16.5106ZM249.586 23.6003C249.6 24.2666 249.757 24.794 250.057 25.1827C250.357 25.5644 250.779 25.7622 251.323 25.7761C252.23 25.8039 252.941 25.3909 253.457 24.5372C253.974 23.6766 254.214 22.5488 254.179 21.1538C254.151 20.4875 253.987 19.9566 253.688 19.5609C253.395 19.1584 252.973 18.9502 252.422 18.9363C251.543 18.9085 250.838 19.3215 250.308 20.1752C249.785 21.0219 249.545 22.1636 249.586 23.6003Z" fill="black"/>
<path d="M262.664 16.7084L262.423 17.9889C263.337 16.9756 264.443 16.4829 265.74 16.5106C266.437 16.5245 267.016 16.6841 267.477 16.9895C267.937 17.2949 268.247 17.7079 268.408 18.2284C269.405 17.0555 270.577 16.4829 271.923 16.5106C272.962 16.5314 273.744 16.8854 274.267 17.5725C274.797 18.2596 275.02 19.2521 274.936 20.55L274.915 20.8102L273.712 27.9832H270.751L271.955 20.7894C271.982 20.5326 271.993 20.2932 271.986 20.0711C271.937 19.3423 271.519 18.9675 270.73 18.9467C269.921 18.9467 269.227 19.377 268.649 20.2376L268.617 20.4771L267.299 27.9832H264.349L265.552 20.8102C265.58 20.5534 265.59 20.314 265.583 20.0919C265.534 19.3562 265.119 18.978 264.338 18.9571C263.592 18.9363 262.919 19.2868 262.319 20.0086L260.906 27.9832H257.956L259.913 16.7188L262.664 16.7084Z" fill="black"/>
<path d="M10.8807 14.3874C10.6714 16.1641 10.1274 17.5869 9.24859 18.6557C8.36976 19.7246 7.23287 20.2416 5.83791 20.2069C4.64522 20.1792 3.73849 19.7003 3.11774 18.7703L2.68879 19.9883H0L2.78295 3.99756H5.74375L4.60337 9.75464C5.3985 8.90097 6.31917 8.48802 7.36539 8.51578C8.46044 8.52966 9.31834 8.92179 9.9391 9.69218C10.5668 10.4556 10.9016 11.514 10.9435 12.8674C10.9574 13.2977 10.9365 13.8044 10.8807 14.3874ZM7.95128 14.1688C8.01405 13.5788 8.03497 13.1208 8.01405 12.7946C7.93733 11.5869 7.43514 10.9727 6.50749 10.9519C5.63564 10.9241 4.91375 11.3162 4.34182 12.1283L3.52576 16.6048C3.79081 17.3544 4.35576 17.7431 5.22064 17.7708C6.6714 17.8125 7.56069 16.7645 7.8885 14.6268L7.95128 14.1688Z" fill="black"/>
<path d="M14.9191 19.9883H11.9478L14.7412 3.99756H17.7021L14.9191 19.9883Z" fill="black"/>
<path d="M23.9061 8.51578C24.9035 8.52966 25.7614 8.78645 26.4798 9.28616C27.2052 9.77893 27.7353 10.4626 28.0701 11.3371C28.4119 12.2046 28.5339 13.1693 28.4363 14.2312C28.2759 16.0218 27.6481 17.4724 26.5531 18.5829C25.465 19.6864 24.1189 20.2243 22.5147 20.1965C21.5312 20.1826 20.6803 19.9328 19.9619 19.447C19.2435 18.9542 18.7134 18.274 18.3716 17.4065C18.0299 16.5389 17.9078 15.5811 18.0055 14.5331C18.1868 12.6731 18.8215 11.1948 19.9096 10.0982C20.9976 9.00161 22.3298 8.47413 23.9061 8.51578ZM20.9244 15.6054C20.9384 16.2717 21.0953 16.7992 21.3952 17.1878C21.6951 17.5696 22.1171 17.7674 22.6611 17.7812C23.5679 17.809 24.2793 17.3961 24.7954 16.5424C25.3116 15.6818 25.5522 14.5539 25.5173 13.1589C25.4894 12.4926 25.3255 11.9617 25.0256 11.5661C24.7327 11.1636 24.3107 10.9553 23.7597 10.9415C22.8808 10.9137 22.1764 11.3267 21.6463 12.1803C21.1232 13.0271 20.8826 14.1688 20.9244 15.6054Z" fill="black"/>
<path d="M29.8591 14.3457C30.0684 12.6037 30.6368 11.1913 31.5645 10.1086C32.4991 9.01896 33.6744 8.48455 35.0902 8.50537C36.2969 8.53313 37.1966 8.9669 37.7895 9.8067L38.1766 8.71358L40.8863 8.72399L39.0345 19.6031C38.8322 21.1022 38.1905 22.2891 37.1094 23.1635C36.0284 24.038 34.6892 24.4614 33.092 24.4336C32.3108 24.4198 31.5645 24.2497 30.853 23.9235C30.1416 23.6043 29.5557 23.1635 29.0954 22.6014L30.5601 20.8107C31.2157 21.6367 32.0388 22.0635 33.0292 22.0913C33.7964 22.119 34.452 21.9177 34.9961 21.4874C35.5401 21.0641 35.9098 20.4637 36.1051 19.6864L36.2725 19.0097C35.4494 19.8287 34.5253 20.2243 33.5 20.1965C32.398 20.1826 31.5226 19.7766 30.874 18.9785C30.2253 18.1734 29.8696 17.1288 29.8068 15.8449C29.7859 15.4215 29.8033 14.9218 29.8591 14.3457ZM32.7572 15.5742C32.7572 16.2266 32.8932 16.7506 33.1652 17.1462C33.4442 17.5349 33.8452 17.7396 34.3683 17.7604C35.1704 17.7882 35.8819 17.4481 36.5026 16.7402L37.3815 11.9721C37.0815 11.3197 36.527 10.9796 35.718 10.9519C34.9647 10.931 34.3265 11.233 33.8034 11.8576C33.2803 12.4822 32.9525 13.3116 32.8199 14.3457C32.7711 14.8524 32.7502 15.2619 32.7572 15.5742Z" fill="black"/>
<path d="M43.324 16.8859C43.7913 16.8721 44.1889 17.0178 44.5167 17.3232C44.8515 17.6216 45.0189 17.9999 45.0189 18.4579C45.0328 18.916 44.8794 19.3081 44.5585 19.6343C44.2377 19.9536 43.8436 20.1132 43.3763 20.1132C42.909 20.1271 42.5149 19.9883 42.1941 19.6968C41.8732 19.4053 41.7058 19.0271 41.6919 18.562C41.6779 18.097 41.8279 17.7049 42.1418 17.3856C42.4556 17.0664 42.8497 16.8998 43.324 16.8859Z" fill="black"/>
</svg>
